<?xml version="1.0" standalone="no"?>
<!DOCTYPE svg PUBLIC "-//W3C//DTD SVG 20010904//EN"
 "http://www.w3.org/TR/2001/REC-SVG-20010904/DTD/svg10.dtd">
<svg version="1.0" xmlns="http://www.w3.org/2000/svg"
 width="400.000000pt" height="200.000000pt" viewBox="0 0 400.000000 200.000000"
 preserveAspectRatio="xMidYMid meet">

<g transform="translate(0.000000,200.000000) scale(0.100000,-0.100000)"
fill="#000000" stroke="none">
<path d="M0 1000 l0 -1000 2000 0 2000 0 0 1000 0 1000 -2000 0 -2000 0 0
-1000z m330 70 l0 -300 135 0 135 0 0 -30 0 -30 -170 0 -170 0 0 330 0 330 35
0 35 0 0 -300z m430 260 c0 -39 -1 -40 -35 -40 -34 0 -35 1 -35 40 0 39 1 40
35 40 34 0 35 -1 35 -40z m1400 -260 l0 -300 135 0 135 0 0 -30 0 -30 -170 0
-170 0 0 330 0 330 35 0 35 0 0 -300z m860 195 l0 -106 32 17 c46 24 129 21
173 -6 58 -36 65 -61 65 -222 0 -120 -3 -149 -18 -177 -26 -49 -73 -71 -152
-71 -75 0 -119 21 -150 72 -19 31 -20 51 -20 316 l0 282 35 0 35 0 0 -105z
m-248 -93 c14 -8 36 -32 47 -52 19 -35 21 -53 21 -224 0 -166 -2 -186 -16
-186 -9 0 -22 7 -28 16 -11 15 -15 14 -47 -5 -42 -26 -126 -28 -175 -5 -45 22
-74 70 -74 125 0 96 69 148 198 149 l72 0 0 45 c0 65 -31 95 -98 95 -56 0 -89
-24 -99 -71 -4 -21 -10 -28 -20 -25 -8 4 -24 6 -35 6 -18 0 -20 4 -14 32 17
86 94 133 196 121 25 -3 57 -12 72 -21z m910 0 c30 -17 68 -79 68 -111 0 -17
-6 -21 -35 -21 -29 0 -35 4 -35 20 0 12 -11 32 -25 45 -19 20 -34 25 -75 25
-41 0 -56 -5 -75 -25 -51 -50 -19 -92 99 -131 109 -36 146 -72 146 -142 0 -89
-55 -132 -170 -132 -80 0 -118 15 -149 59 -45 62 -38 110 15 111 17 0 23 -8
28 -35 9 -48 47 -75 106 -75 60 0 100 28 100 70 0 37 -36 65 -109 87 -77 22
-113 40 -134 69 -58 78 -10 184 93 205 46 9 119 0 152 -19z m-2922 -222 l0
-240 -35 0 -35 0 0 233 c0 129 3 237 7 240 3 4 19 7 35 7 l28 0 0 -240z m389
219 l33 -20 22 20 c12 12 25 21 29 21 4 0 7 -46 7 -101 0 -162 -38 -207 -183
-218 -61 -5 -83 -10 -91 -23 -16 -27 4 -53 45 -55 124 -10 139 -14 179 -52 36
-34 40 -43 40 -88 0 -86 -57 -133 -161 -133 -122 0 -193 94 -144 191 15 28 15
31 -5 56 -24 31 -26 89 -5 120 14 20 13 25 -6 58 -17 29 -21 48 -17 98 6 104
52 146 158 147 48 0 74 -5 99 -21z m454 6 c55 -27 72 -60 76 -152 l3 -83 -136
0 -136 0 0 -65 c0 -57 3 -69 25 -90 19 -20 34 -25 73 -25 65 0 102 27 102 76
0 29 4 34 23 34 39 0 51 -14 44 -56 -4 -25 -19 -50 -42 -73 -33 -34 -39 -36
-113 -39 -88 -3 -127 13 -162 70 -17 29 -20 51 -20 171 0 147 6 172 52 213 12
12 30 24 38 27 32 12 143 7 173 -8z m231 -10 c16 -24 18 -24 33 -9 23 22 58
34 104 34 38 0 39 -1 39 -35 0 -35 0 -35 -44 -35 -98 0 -106 -18 -106 -240 l0
-170 -35 0 -35 0 0 233 c0 129 3 237 7 240 11 12 20 8 37 -18z m446 -570 c0
-24 -2 -25 -70 -25 l-70 0 0 -30 0 -30 60 0 c57 0 60 -1 60 -25 0 -24 -3 -25
-60 -25 l-60 0 0 -65 c0 -63 -1 -65 -25 -65 l-25 0 0 145 0 145 95 0 c95 0 95
0 95 -25z m228 -2 c3 -22 0 -23 -72 -23 l-76 0 0 -30 0 -30 75 0 c73 0 75 -1
75 -25 0 -24 -2 -25 -75 -25 l-75 0 0 -45 0 -45 75 0 c68 0 75 -2 75 -20 0
-19 -7 -20 -105 -20 l-105 0 0 138 c0 76 3 142 7 146 4 4 50 5 103 4 90 -3 95
-4 98 -25z m219 3 c65 -33 91 -120 57 -191 -27 -58 -64 -75 -161 -75 l-83 0 0
138 c0 76 3 142 8 146 12 13 145 0 179 -18z m313 -1 c0 -24 -2 -25 -70 -25
l-70 0 0 -30 0 -30 70 0 c68 0 70 -1 70 -25 0 -24 -2 -25 -70 -25 l-70 0 0
-45 0 -45 70 0 c63 0 70 -2 70 -20 0 -19 -7 -20 -100 -20 l-100 0 0 145 0 145
100 0 100 0 0 -25z m214 -4 c34 -32 34 -79 2 -118 l-24 -28 42 -46 42 -46 48
133 48 134 33 0 32 0 48 -132 c27 -73 50 -139 53 -145 3 -9 -6 -13 -26 -13
-26 0 -33 5 -43 35 -13 34 -15 35 -65 35 -51 0 -53 -1 -64 -35 -11 -34 -13
-35 -65 -35 -52 0 -54 1 -100 55 -26 30 -54 55 -61 55 -10 0 -14 -15 -14 -55
0 -54 0 -55 -30 -55 l-30 0 0 146 0 146 74 -4 c62 -3 79 -7 100 -27z m406 -96
l0 -125 60 0 c53 0 60 -2 60 -20 0 -19 -7 -20 -90 -20 l-90 0 0 138 c0 76 3
142 7 145 3 4 17 7 30 7 23 0 23 -1 23 -125z"/>
<path d="M3045 1105 c-24 -23 -25 -29 -25 -158 0 -132 1 -135 26 -161 37 -36
114 -37 149 -1 24 23 25 29 25 164 0 139 0 140 -26 160 -39 31 -117 29 -149
-4z"/>
<path d="M2596 909 c-36 -28 -37 -89 -1 -124 35 -36 112 -35 149 1 22 23 26
35 26 85 l0 59 -74 0 c-59 0 -78 -4 -100 -21z"/>
<path d="M986 1109 c-22 -17 -26 -28 -26 -73 0 -74 24 -96 107 -96 55 0 64 3
82 26 31 39 29 107 -4 139 -33 33 -119 36 -159 4z"/>
<path d="M999 702 c-31 -26 -31 -78 0 -104 36 -28 115 -25 146 7 32 31 32 59
0 90 -31 32 -110 35 -146 7z"/>
<path d="M1435 1105 c-19 -18 -25 -35 -25 -70 l0 -45 100 0 100 0 0 49 c0 42
-4 53 -26 70 -39 31 -117 29 -149 -4z"/>
<path d="M2600 471 l0 -101 25 0 c43 0 94 27 105 55 28 75 -6 134 -83 142
l-47 6 0 -102z"/>
<path d="M3140 525 c0 -39 3 -45 21 -45 33 0 59 19 59 43 0 31 -18 47 -52 47
-27 0 -28 -2 -28 -45z"/>
<path d="M3427 495 l-16 -45 34 0 34 0 -16 45 c-8 25 -16 45 -18 45 -2 0 -10
-20 -18 -45z"/>
</g>
</svg>
